<svg width="56" height="56" viewBox="0 0 56 56" fill="none" xmlns="http://www.w3.org/2000/svg">
<g clip-path="url(#clip0_2769_232)">
<circle cx="28" cy="28" r="28" fill="#E0F2FE"/>
<g filter="url(#filter0_d_2769_232)">
<circle cx="28.0001" cy="28" r="20.3636" fill="white"/>
</g>
<g clip-path="url(#clip1_2769_232)">
<path d="M27.6219 20.4476L20.7364 23.6645C20.6899 23.6858 20.6504 23.7201 20.6228 23.7632C20.5952 23.8064 20.5805 23.8565 20.5806 23.9078C20.5806 23.959 20.5954 24.0091 20.6232 24.0522C20.6509 24.0952 20.6904 24.1294 20.7371 24.1506L27.6766 27.3439C27.8815 27.4381 28.1182 27.4381 28.3232 27.3439L35.2627 24.1506C35.3093 24.1295 35.3489 24.0953 35.3767 24.0523C35.4045 24.0093 35.4194 23.9592 35.4195 23.908C35.4197 23.8567 35.4051 23.8066 35.3775 23.7634C35.3499 23.7202 35.3105 23.6859 35.264 23.6645L28.3779 20.4476C28.2595 20.3923 28.1305 20.3637 27.9999 20.3637C27.8693 20.3637 27.7402 20.3923 27.6219 20.4476Z" fill="#0876DD"/>
<path d="M35.2641 27.7938L33.8418 27.1295C33.7399 27.0819 33.6289 27.0571 33.5165 27.0567C33.4041 27.0564 33.2929 27.0806 33.1908 27.1276L28.3232 29.3676C28.2218 29.4142 28.1116 29.4383 28 29.4383C27.8884 29.4383 27.7781 29.4142 27.6767 29.3676L22.8085 27.1276C22.7065 27.0807 22.5954 27.0566 22.4831 27.0569C22.3708 27.0572 22.2599 27.082 22.1581 27.1295L20.7359 27.7938C20.6893 27.8153 20.6499 27.8496 20.6224 27.8928C20.5948 27.9359 20.5802 27.9861 20.5803 28.0373C20.5805 28.0886 20.5953 28.1387 20.6231 28.1817C20.6509 28.2247 20.6905 28.2589 20.7371 28.28L27.6767 31.4727C27.778 31.5195 27.8883 31.5438 28 31.5438C28.1116 31.5438 28.2219 31.5195 28.3232 31.4727L35.2628 28.28C35.3094 28.2589 35.349 28.2247 35.3768 28.1817C35.4046 28.1387 35.4195 28.0886 35.4196 28.0373C35.4197 27.9861 35.4051 27.9359 35.3776 27.8928C35.35 27.8496 35.3106 27.8153 35.2641 27.7938Z" fill="#0876DD"/>
<path d="M35.2641 31.8869L33.8418 31.2226C33.74 31.175 33.629 31.1501 33.5165 31.1498C33.4041 31.1495 33.293 31.1737 33.1908 31.2207L28.3233 33.46C28.2219 33.5066 28.1116 33.5308 28 33.5308C27.8884 33.5308 27.7781 33.5066 27.6767 33.46L22.8085 31.22C22.7065 31.1731 22.5955 31.149 22.4832 31.1493C22.3708 31.1497 22.26 31.1744 22.1582 31.2219L20.7359 31.8869C20.6896 31.9084 20.6503 31.9427 20.6229 31.9858C20.5954 32.0289 20.5809 32.079 20.5811 32.1301C20.5812 32.1812 20.596 32.2312 20.6236 32.2741C20.6513 32.3171 20.6907 32.3512 20.7372 32.3725L27.6767 35.5657C27.8816 35.6599 28.1184 35.6599 28.3233 35.5657L35.2628 32.3725C35.3093 32.3512 35.3487 32.3171 35.3764 32.2741C35.404 32.2312 35.4188 32.1812 35.4189 32.1301C35.4191 32.079 35.4046 32.0289 35.3771 31.9858C35.3497 31.9427 35.3104 31.9084 35.2641 31.8869Z" fill="#0876DD"/>
</g>
</g>
<defs>
<filter id="filter0_d_2769_232" x="-12.3635" y="-2.36365" width="80.7273" height="80.7273" filterUnits="userSpaceOnUse" color-interpolation-filters="sRGB">
<feFlood flood-opacity="0" result="BackgroundImageFix"/>
<feColorMatrix in="SourceAlpha" type="matrix" values="0 0 0 0 0 0 0 0 0 0 0 0 0 0 0 0 0 0 127 0" result="hardAlpha"/>
<feOffset dy="10"/>
<feGaussianBlur stdDeviation="10"/>
<feColorMatrix type="matrix" values="0 0 0 0 0.109804 0 0 0 0 0.172549 0 0 0 0 0.25098 0 0 0 0.08 0"/>
<feBlend mode="normal" in2="BackgroundImageFix" result="effect1_dropShadow_2769_232"/>
<feBlend mode="normal" in="SourceGraphic" in2="effect1_dropShadow_2769_232" result="shape"/>
</filter>
<clipPath id="clip0_2769_232">
<rect width="56" height="56" fill="white"/>
</clipPath>
<clipPath id="clip1_2769_232">
<rect width="15.2727" height="15.2727" fill="white" transform="translate(20.3635 20.3636)"/>
</clipPath>
</defs>
</svg>
