<svg width="29" height="28" viewBox="0 0 29 28" fill="none" xmlns="http://www.w3.org/2000/svg">
<g id="Frame" clip-path="url(#clip0_2769_389)">
<path id="Vector" d="M10.7209 0.0690918C9.1814 0.0690918 7.93353 1.31976 7.93353 2.86209C7.93317 3.22851 8.00497 3.5914 8.14485 3.93007C8.28473 4.26873 8.48995 4.57653 8.74878 4.83588C9.00762 5.09523 9.315 5.30107 9.65338 5.44163C9.99176 5.58219 10.3545 5.65472 10.7209 5.65509H13.5088V2.86209C13.5094 2.12204 13.2161 1.41205 12.6932 0.888273C12.1704 0.364498 11.461 0.0698341 10.7209 0.0690918ZM10.7209 7.51709H3.2874C1.74787 7.51709 0.5 8.76776 0.5 10.3106C0.5 11.8529 1.74787 13.1036 3.2874 13.1036H10.7214C12.2605 13.1036 13.5088 11.8529 13.5088 10.3106C13.5088 8.76776 12.2605 7.51709 10.7209 7.51709Z" fill="#36C5F0"/>
<path id="Vector_2" d="M28.376 10.3106C28.376 8.76776 27.1277 7.51709 25.5881 7.51709C24.0486 7.51709 22.8007 8.76776 22.8007 10.3106V13.1036H25.5881C26.3282 13.1028 27.0376 12.8081 27.5604 12.2844C28.0832 11.7606 28.3766 11.0506 28.376 10.3106ZM20.9425 10.3106V2.86209C20.9431 2.12204 20.6497 1.41205 20.1269 0.888273C19.6041 0.364498 18.8946 0.0698341 18.1546 0.0690918C16.6151 0.0690918 15.3672 1.31976 15.3672 2.86209V10.3101C15.3672 11.8534 16.6151 13.104 18.1546 13.104C18.8946 13.1033 19.6041 12.8086 20.1269 12.2848C20.6497 11.7611 20.9431 11.0511 20.9425 10.311" fill="#2EB67D"/>
<path id="Vector_3" d="M18.1546 28C18.8946 27.9993 19.6041 27.7046 20.1269 27.1809C20.6497 26.6571 20.9431 25.9471 20.9425 25.207C20.9431 24.467 20.6497 23.757 20.1269 23.2332C19.6041 22.7094 18.8946 22.4148 18.1546 22.414H15.3672V25.207C15.3672 26.7494 16.6151 28 18.1546 28ZM18.1546 20.552H25.5886C27.1277 20.552 28.376 19.3014 28.376 17.7586C28.3766 17.0185 28.0832 16.3085 27.5604 15.7848C27.0376 15.261 26.3282 14.9663 25.5881 14.9656H18.1546C16.6151 14.9656 15.3672 16.2162 15.3672 17.7586C15.3668 18.125 15.4386 18.4879 15.5785 18.8266C15.7184 19.1652 15.9236 19.473 16.1824 19.7324C16.4413 19.9917 16.7487 20.1976 17.087 20.3381C17.4254 20.4787 17.7882 20.5512 18.1546 20.5516" fill="#ECB22E"/>
<path id="Vector_4" d="M0.500001 17.7586C0.499634 18.125 0.57144 18.4879 0.711321 18.8266C0.851202 19.1652 1.05642 19.473 1.31525 19.7324C1.57409 19.9917 1.88147 20.1976 2.21985 20.3381C2.55823 20.4787 2.92099 20.5512 3.2874 20.5516C4.02745 20.5508 4.7369 20.2562 5.25972 19.7324C5.78253 19.2086 6.07589 18.4986 6.07527 17.7586V14.9656H3.2874C1.74787 14.9656 0.500001 16.2162 0.500001 17.7586ZM7.93353 17.7586V25.2066C7.93353 26.7494 9.1814 28 10.7209 28C11.461 27.9993 12.1704 27.7046 12.6932 27.1809C13.2161 26.6571 13.5094 25.9471 13.5088 25.207V17.7586C13.5092 17.3921 13.4373 17.0292 13.2974 16.6905C13.1575 16.3518 12.9523 16.044 12.6934 15.7846C12.4345 15.5253 12.1271 15.3194 11.7886 15.1789C11.4502 15.0384 11.0874 14.9659 10.7209 14.9656C9.1814 14.9656 7.93353 16.2162 7.93353 17.7586Z" fill="#E01E5A"/>
</g>
<defs>
<clipPath id="clip0_2769_389">
<rect width="28" height="28" fill="white" transform="translate(0.5)"/>
</clipPath>
</defs>
</svg>
