<svg width="29" height="28" viewBox="0 0 29 28" fill="none" xmlns="http://www.w3.org/2000/svg">
<g id="Frame">
<g id="Group">
<g id="Group_2">
<path id="Vector" d="M8.84303 18.5094C8.85849 18.5281 8.86793 18.5511 8.87009 18.5753C8.87225 18.5994 8.86704 18.6237 8.85514 18.6449C8.79725 18.7388 8.71428 18.8147 8.61558 18.864C8.51688 18.9133 8.40636 18.9341 8.29649 18.924C8.10069 18.9029 7.9202 18.8082 7.7915 18.6592C7.6628 18.5101 7.59548 18.3177 7.60315 18.121C7.59983 17.8528 7.6488 17.5865 7.7473 17.3371C7.80948 17.1808 7.81597 17.0078 7.76567 16.8473C7.71538 16.6868 7.61137 16.5485 7.47111 16.4556C7.38811 16.4007 7.29494 16.3629 7.1971 16.3446C7.09927 16.3263 6.99876 16.3278 6.90151 16.3489C6.80622 16.369 6.71591 16.4079 6.63588 16.4633C6.55585 16.5188 6.48772 16.5897 6.43549 16.6719C6.36161 16.7984 6.30418 16.9337 6.26456 17.0748C6.25692 17.0996 6.25076 17.1191 6.24608 17.1317C6.18118 17.3067 6.07771 17.3578 6.0076 17.3484C5.97446 17.3438 5.92889 17.3216 5.89968 17.2415C5.86301 17.0099 5.87965 16.7729 5.94833 16.5487C6.01701 16.3245 6.13591 16.1188 6.29601 15.9475C6.43046 15.8031 6.59736 15.6928 6.78289 15.6257C6.96842 15.5586 7.16725 15.5366 7.36295 15.5616C7.57028 15.5901 7.76729 15.6696 7.93637 15.7929C8.10544 15.9162 8.24129 16.0796 8.33175 16.2683C8.42336 16.5002 8.46033 16.7501 8.43979 16.9986C8.41925 17.2472 8.34175 17.4876 8.21331 17.7014C8.19706 17.7377 8.18218 17.7711 8.16964 17.8012C8.12346 17.8847 8.09809 17.9781 8.09571 18.0735C8.09332 18.1689 8.11399 18.2634 8.15595 18.3491C8.19142 18.4002 8.23901 18.4417 8.29446 18.4699C8.34991 18.4981 8.41148 18.5121 8.47367 18.5106C8.53229 18.5098 8.59058 18.5016 8.64714 18.4861C8.72075 18.4689 8.79681 18.4512 8.84302 18.5093L8.84303 18.5094ZM26.9896 18.9624C26.9485 19.8074 26.7699 20.6401 26.461 21.4276C24.92 25.1317 21.2423 27.1937 16.8612 27.0632C12.7769 26.9415 9.29353 24.7797 7.76896 21.2558C6.80651 21.2289 5.88578 20.857 5.17457 20.208C4.43989 19.5817 3.96786 18.7018 3.85235 17.7433C3.7778 17.0839 3.85936 16.4161 4.09043 15.794L3.23423 15.0665C-0.683432 11.7485 11.57 -1.91288 15.4891 1.5159C15.5089 1.53316 16.8223 2.82584 16.8256 2.82902C16.8308 2.82636 17.5502 2.52035 17.5539 2.51886C20.9913 1.09109 23.7806 1.78047 23.7841 4.05852C23.7859 5.24324 23.0333 6.62414 21.8277 7.87759C22.3096 8.36798 22.6507 8.97887 22.8154 9.64632C22.9484 10.112 23.0202 10.5929 23.0292 11.0771C23.0501 11.5599 23.0733 12.6846 23.0756 12.7046C23.1062 12.7139 23.4542 12.8097 23.5597 12.8394C24.261 12.9932 24.9136 13.3175 25.4599 13.7835C25.7482 14.0654 25.9371 14.4335 25.9979 14.8321C26.0722 15.3494 25.9432 15.8753 25.6378 16.2994C25.7172 16.4806 25.7862 16.6663 25.8443 16.8554C25.9457 17.1817 26.0196 17.4524 26.0309 17.4926C26.4039 17.4926 26.9896 17.9232 26.9896 18.9624L26.9896 18.9624ZM9.67649 16.9299C9.41007 15.2002 8.24358 14.5907 7.45209 14.5472C7.25341 14.5366 7.05419 14.5508 6.85902 14.5895C5.44631 14.8754 4.64843 16.0808 4.80543 17.647C4.91977 18.3496 5.26768 18.9931 5.79292 19.4735C6.31817 19.9539 6.99006 20.2432 7.70002 20.2946C7.83589 20.2982 7.97179 20.2887 8.10581 20.266C9.53765 20.0211 9.91252 18.4616 9.67649 16.9299ZM12.0911 5.9502C13.2878 4.96638 14.5644 4.08393 15.9075 3.31201C15.9075 3.31201 14.841 2.07166 14.519 1.98025C12.538 1.44313 8.25878 4.40329 5.52661 8.31412C4.4211 9.89649 2.83853 12.6988 3.59519 14.14C3.86399 14.4634 4.16722 14.7567 4.4995 15.0145C5.00538 14.3015 5.76868 13.813 6.62808 13.6525C7.70327 10.63 9.5941 7.96417 12.0911 5.9502ZM16.3965 19.6375C16.449 19.8674 16.5626 20.0788 16.7254 20.2494C16.8881 20.4201 17.0939 20.5436 17.321 20.6069C17.5573 20.695 17.8011 20.7614 18.0493 20.8053C21.1828 21.3459 24.1123 19.5489 24.7719 19.0962C24.8214 19.0623 24.8541 19.0954 24.8143 19.1554C24.7945 19.1873 24.7729 19.2181 24.7498 19.2478C23.9425 20.2922 21.7724 21.5016 18.949 21.5012C17.7176 21.501 16.4869 21.0658 16.035 20.3972C15.3339 19.3597 16.0002 17.8455 17.1684 18.0033C17.1698 18.0035 17.5682 18.0488 17.6801 18.0612C19.4961 18.2358 21.3265 17.942 22.9966 17.2079C24.5904 16.4657 25.1925 15.649 25.1022 14.9879C25.072 14.7826 24.9755 14.5928 24.8274 14.4474C24.3915 14.0886 23.874 13.8427 23.3205 13.7315C23.0674 13.6602 22.8956 13.6147 22.7106 13.5535C22.3816 13.4448 22.219 13.3574 22.1821 12.7368C22.166 12.4654 22.1189 11.52 22.1018 11.1293C22.0717 10.4447 21.9897 9.50898 21.4108 9.12263C21.2634 9.02563 21.0923 8.97077 20.916 8.96397C20.8171 8.95796 20.7179 8.96771 20.6221 8.99285C20.3289 9.06071 20.0616 9.21225 19.8528 9.42907C19.5823 9.6736 19.2641 9.8596 18.9183 9.97539C18.5725 10.0912 18.2065 10.1343 17.8432 10.1019C17.4382 10.085 17.0089 10.0217 16.5169 9.9924C16.4212 9.98675 16.325 9.98079 16.2291 9.97588C15.5956 9.9925 14.9891 10.2361 14.52 10.6623C14.051 11.0885 13.7505 11.669 13.6735 12.298C13.3918 14.2422 14.7955 15.2469 15.2007 15.8364C15.2633 15.9115 15.3022 16.0036 15.3123 16.1008C15.3016 16.2086 15.2499 16.3083 15.168 16.3792V16.3799C14.6075 17.0043 14.2135 17.7601 14.0226 18.5773C13.8316 19.3944 13.8499 20.2465 14.0757 21.0547C14.1292 21.2488 14.1979 21.4384 14.281 21.6218C15.3053 24.0226 18.4826 25.1405 21.5868 24.1236C21.9932 23.9905 22.3877 23.8234 22.7661 23.6241C23.4459 23.2871 24.058 22.8282 24.5721 22.2703C25.3716 21.4668 25.8976 20.4319 26.0756 19.3125C26.1691 18.6937 26.0323 18.4544 25.8458 18.3392C25.7139 18.2657 25.5615 18.2378 25.4121 18.2597C25.3331 17.7738 25.1944 17.2994 24.9992 16.8474C24.1127 17.5164 23.1105 18.0163 22.0428 18.3223C20.7582 18.6852 19.4219 18.8302 18.0894 18.751C17.2321 18.6816 16.665 18.4305 16.4517 19.1259C17.7484 19.5595 19.1252 19.7 20.4828 19.5372C20.4923 19.5362 20.502 19.5371 20.5112 19.5399C20.5204 19.5426 20.5289 19.5472 20.5364 19.5533C20.5438 19.5594 20.55 19.5668 20.5545 19.5753C20.559 19.5838 20.5618 19.5931 20.5628 19.6026C20.5642 19.6187 20.5606 19.6348 20.5525 19.6487C20.5444 19.6626 20.5322 19.6737 20.5175 19.6804C20.5175 19.6804 18.9253 20.4219 16.3965 19.6375ZM11.7333 8.36313C12.7864 7.62376 13.9739 7.0973 15.229 6.81336C16.6448 6.48525 18.1165 6.48128 19.5341 6.80175C19.5837 6.81314 19.6153 6.72695 19.5709 6.70203C18.8353 6.31901 18.0233 6.10551 17.1944 6.07721C17.1864 6.07707 17.1786 6.07473 17.1719 6.07044C17.1651 6.06615 17.1597 6.06009 17.1562 6.05292C17.1527 6.04575 17.1512 6.03774 17.152 6.02979C17.1527 6.02184 17.1556 6.01425 17.1604 6.00785C17.2892 5.83885 17.4396 5.6875 17.6077 5.55768C17.6153 5.5518 17.6207 5.54366 17.6233 5.53446C17.6259 5.52526 17.6255 5.51548 17.6222 5.50653C17.6188 5.49757 17.6127 5.48993 17.6047 5.4847C17.5967 5.47947 17.5872 5.47693 17.5777 5.47745C16.5626 5.5778 15.5872 5.92324 14.7352 6.48405C14.728 6.48898 14.7194 6.4916 14.7106 6.49158C14.7018 6.49156 14.6932 6.48889 14.6859 6.48393C14.6787 6.47896 14.6731 6.47193 14.6699 6.46374C14.6667 6.45555 14.666 6.44659 14.668 6.43802C14.7366 6.18084 14.8377 5.93343 14.9687 5.70176C14.9731 5.69384 14.9748 5.68473 14.9735 5.67577C14.9723 5.66682 14.9683 5.65849 14.962 5.65201C14.9557 5.64553 14.9475 5.64125 14.9385 5.63979C14.9296 5.63833 14.9205 5.63977 14.9124 5.6439C13.6803 6.32398 12.5829 7.22356 11.6743 8.29828C11.6672 8.30643 11.6633 8.31691 11.6634 8.32773C11.6635 8.33856 11.6676 8.34896 11.6749 8.35697C11.6822 8.36498 11.6921 8.37003 11.7029 8.37117C11.7137 8.3723 11.7245 8.36944 11.7333 8.36313ZM19.9849 14.9627C20.0707 15.017 20.1734 15.0378 20.2736 15.0212C20.3737 15.0046 20.4642 14.9516 20.5278 14.8725C20.6068 14.7195 20.4921 14.512 20.2714 14.409C20.1856 14.3547 20.0828 14.3339 19.9827 14.3506C19.8825 14.3673 19.792 14.4202 19.7285 14.4994C19.6493 14.6523 19.7642 14.8598 19.9849 14.9627ZM20.6619 12.482C20.7148 12.7575 20.8291 13.0174 20.9961 13.2427C21.1687 13.2215 21.3433 13.2215 21.5159 13.2427C21.6168 12.9404 21.6257 12.6149 21.5413 12.3075C21.4166 11.7404 21.2477 11.3972 20.8989 11.4506C20.5501 11.504 20.5372 11.9149 20.6619 12.482ZM21.404 13.7848C21.3161 13.7595 21.2224 13.7625 21.1362 13.7932C21.0499 13.8239 20.9755 13.8809 20.9234 13.9561C20.8712 14.0313 20.8439 14.121 20.8453 14.2125C20.8467 14.304 20.8768 14.3928 20.9313 14.4664C20.9857 14.5399 21.0619 14.5946 21.149 14.6226C21.2361 14.6507 21.3299 14.6507 21.417 14.6228C21.5042 14.5948 21.5804 14.5402 21.6349 14.4667C21.6895 14.3932 21.7196 14.3045 21.7211 14.213C21.7338 14.1145 21.7078 14.0149 21.6487 13.9351C21.5896 13.8553 21.5019 13.8014 21.404 13.7848Z" fill="black"/>
</g>
<g id="Group_3">
<path id="Vector_2" d="M15.6124 13.7342C15.5567 13.7264 15.533 13.7025 15.526 13.671C15.5044 13.5732 15.6549 13.4122 15.8135 13.2959C16.045 13.1267 16.3161 13.0198 16.6008 12.9857C16.8855 12.9515 17.1742 12.9911 17.4392 13.1008C17.6868 13.2029 17.8996 13.3742 18.0523 13.5943C18.109 13.6868 18.12 13.7585 18.0833 13.7961C18.0262 13.8564 17.8806 13.7873 17.6434 13.6833C17.3586 13.5436 17.0438 13.4758 16.7266 13.4859C16.3508 13.5477 15.9788 13.6306 15.6124 13.7342ZM17.9759 14.2208C17.8734 14.1131 17.7459 14.0324 17.6046 13.9861C17.4633 13.9398 17.3128 13.9293 17.1664 13.9554C16.9506 13.9784 16.7461 14.0636 16.5779 14.2007C16.4995 14.257 16.4456 14.3411 16.4273 14.4359C16.4269 14.4464 16.4288 14.4569 16.4329 14.4666C16.437 14.4764 16.4431 14.4851 16.4509 14.4922C16.4649 14.5048 16.483 14.5117 16.5018 14.5115C16.5794 14.5001 16.6553 14.479 16.7278 14.4488C17.0448 14.3294 17.3873 14.2938 17.7221 14.3456C17.8773 14.363 17.9506 14.3727 17.9847 14.3195C17.9934 14.3041 17.9972 14.2864 17.9957 14.2687C17.9941 14.2511 17.9872 14.2344 17.9759 14.2208Z" fill="black"/>
</g>
</g>
</g>
</svg>
