<svg width="31" height="32" viewBox="0 0 31 32" fill="none" xmlns="http://www.w3.org/2000/svg">
<g id="Frame" clip-path="url(#clip0_2769_359)">
<path id="Vector" d="M15.5001 31.4C24.0053 31.4 30.9001 24.5052 30.9001 16C30.9001 7.49479 24.0053 0.599976 15.5001 0.599976C6.99491 0.599976 0.100098 7.49479 0.100098 16C0.100098 24.5052 6.99491 31.4 15.5001 31.4Z" fill="#2CA01C"/>
<path id="Vector_2" d="M4.37793 16C4.37793 17.5883 5.0089 19.1116 6.13203 20.2348C7.25517 21.3579 8.77847 21.9889 10.3668 21.9889H11.2224V19.7644H10.3668C9.36843 19.7644 8.41092 19.3678 7.70495 18.6618C6.99898 17.9559 6.60237 16.9984 6.60237 16C6.60237 15.0016 6.99898 14.0441 7.70495 13.3381C8.41092 12.6321 9.36843 12.2355 10.3668 12.2355H12.4202V23.8711C12.4202 24.1632 12.4777 24.4525 12.5895 24.7223C12.7013 24.9922 12.8651 25.2374 13.0717 25.444C13.2782 25.6506 13.5235 25.8144 13.7933 25.9262C14.0632 26.038 14.3525 26.0955 14.6446 26.0955V10.0111H10.3668C8.77847 10.0111 7.25517 10.6421 6.13203 11.7652C5.0089 12.8883 4.37793 14.4116 4.37793 16ZM20.6335 10.0111H19.7779V12.2355H20.6335C21.6319 12.2355 22.5894 12.6321 23.2953 13.3381C24.0013 14.0441 24.3979 15.0016 24.3979 16C24.3979 16.9984 24.0013 17.9559 23.2953 18.6618C22.5894 19.3678 21.6319 19.7644 20.6335 19.7644H18.5802V8.12886C18.5802 7.5389 18.3458 6.97311 17.9286 6.55594C17.5115 6.13878 16.9457 5.90442 16.3557 5.90442V21.9889H20.6335C21.42 21.9889 22.1987 21.834 22.9253 21.533C23.6519 21.232 24.3121 20.7909 24.8683 20.2348C25.4244 19.6786 25.8655 19.0184 26.1665 18.2918C26.4675 17.5652 26.6224 16.7864 26.6224 16C26.6224 15.2135 26.4675 14.4347 26.1665 13.7081C25.8655 12.9815 25.4244 12.3213 24.8683 11.7652C24.3121 11.2091 23.6519 10.7679 22.9253 10.467C22.1987 10.166 21.42 10.0111 20.6335 10.0111Z" fill="white"/>
</g>
<defs>
<clipPath id="clip0_2769_359">
<rect width="30.8" height="30.8" fill="white" transform="translate(0.100098 0.599976)"/>
</clipPath>
</defs>
</svg>
