<svg width="29" height="28" viewBox="0 0 29 28" fill="none" xmlns="http://www.w3.org/2000/svg">
<g id="Frame" clip-path="url(#clip0_2769_440)">
<path id="Vector" d="M17.9999 14.0061C18.0004 15.0157 17.8182 16.0171 17.4623 16.9619C16.5172 17.3178 15.5156 17.5002 14.5057 17.5003H14.4939C13.4539 17.499 12.4575 17.3089 11.5381 16.9623C11.182 16.0174 10.9997 15.0159 11 14.0061V13.9939C10.9995 12.9845 11.1814 11.9833 11.537 11.0386C12.4821 10.682 13.4839 10.4995 14.494 10.5H14.5058C15.5158 10.4995 16.5175 10.6819 17.4624 11.0385C17.8184 11.9831 18.0005 12.9843 18 13.9938V14.006L17.9999 14.0061ZM28.3055 11.6667H20.1335L25.9116 5.88809C25.4581 5.251 24.9522 4.65287 24.3992 4.09992V4.09948C23.8462 3.54713 23.2482 3.04168 22.6115 2.58836L16.8329 8.36697V0.194906C16.0643 0.0656172 15.2863 0.000424036 14.507 0L14.4926 0C13.6998 0.0004375 12.9234 0.0678125 12.1667 0.194906V8.36697L6.38809 2.58836C5.75125 3.04156 5.15354 3.54737 4.60123 4.10047L4.59817 4.10266C4.04611 4.65491 3.54091 5.25212 3.08781 5.88809L8.86686 11.6667H0.694906C0.694906 11.6667 0.5 13.2016 0.5 13.9952V14.0048C0.5 14.7984 0.567266 15.5762 0.694906 16.3333H8.86697L3.08792 22.1119C3.99701 23.3877 5.11234 24.503 6.38809 25.4121L12.1667 19.633V27.8055C12.9344 27.9342 13.7114 27.9992 14.4898 28H14.5096C15.288 27.9993 16.0651 27.9343 16.8328 27.8055V19.633L22.6119 25.4121C23.2485 24.9586 23.8463 24.453 24.3992 23.9005L24.4005 23.8992C24.9528 23.3462 25.4582 22.7484 25.9116 22.1119L20.1326 16.3333H28.3055C28.4327 15.5775 28.4991 14.802 28.5 14.0102V13.9898C28.4991 13.198 28.4327 12.4225 28.3055 11.6667Z" fill="#FF4A00"/>
</g>
<defs>
<clipPath id="clip0_2769_440">
<rect width="28" height="28" fill="white" transform="translate(0.5)"/>
</clipPath>
</defs>
</svg>
