<svg width="45" height="46" viewBox="0 0 45 46" fill="none" xmlns="http://www.w3.org/2000/svg">
<g id="sprocket-web-color 1">
<path id="Vector" d="M30.2313 17.8628V14.2991C30.7029 14.0788 31.1023 13.729 31.3828 13.2905C31.6633 12.852 31.8134 12.3428 31.8157 11.8222V11.7389C31.8138 11.0113 31.524 10.3142 31.0096 9.79973C30.4953 9.2853 29.7982 8.99542 29.0708 8.99347H28.9875C28.2601 8.99542 27.5631 9.2853 27.0487 9.79973C26.5344 10.3142 26.2445 11.0113 26.2426 11.7389V11.8222C26.2449 12.3428 26.395 12.852 26.6755 13.2905C26.956 13.729 27.3554 14.0788 27.827 14.2991V17.8702C26.4711 18.0775 25.194 18.6395 24.1251 19.4993L14.3263 11.8666C14.5128 11.1681 14.4516 10.4266 14.153 9.76822C13.8544 9.10983 13.337 8.57526 12.6887 8.25549C12.0404 7.93572 11.3014 7.8505 10.5974 8.01435C9.89339 8.17819 9.26789 8.58097 8.82737 9.15414C8.38684 9.7273 8.15851 10.4354 8.18123 11.158C8.20396 11.8806 8.47633 12.573 8.95199 13.1173C9.42766 13.6617 10.0772 14.0244 10.7901 14.1436C11.5031 14.2629 12.2353 14.1314 12.8622 13.7715L22.4963 21.2727C21.6285 22.5821 21.1758 24.1228 21.1973 25.6936C21.2187 27.2643 21.7134 28.7921 22.6166 30.0772L19.6847 33.0096C19.4494 32.9346 19.2043 32.8947 18.9573 32.8911C18.4539 32.8911 17.9619 33.0404 17.5434 33.3201C17.1248 33.5998 16.7986 33.9974 16.606 34.4625C16.4134 34.9276 16.363 35.4394 16.4612 35.9332C16.5594 36.4269 16.8018 36.8805 17.1577 37.2365C17.5136 37.5925 17.9671 37.8349 18.4608 37.9331C18.9545 38.0313 19.4662 37.9809 19.9312 37.7883C20.3963 37.5956 20.7938 37.2694 21.0734 36.8508C21.3531 36.4322 21.5023 35.94 21.5023 35.4366C21.4989 35.1896 21.4589 34.9444 21.3839 34.709L24.2843 31.8082C25.2311 32.5315 26.3306 33.0288 27.4989 33.2623C28.6671 33.4958 29.8733 33.4592 31.0253 33.1554C32.1773 32.8515 33.2447 32.2885 34.1459 31.5091C35.0471 30.7298 35.7584 29.7548 36.2255 28.6586C36.6925 27.5624 36.903 26.374 36.8407 25.184C36.7785 23.9941 36.4453 22.8341 35.8665 21.7926C35.2877 20.7511 34.4786 19.8556 33.501 19.1745C32.5234 18.4934 31.4032 18.0448 30.2258 17.8628H30.2313ZM29.0245 29.6033C28.2312 29.6015 27.4562 29.3645 26.7975 28.9223C26.1387 28.4801 25.6258 27.8525 25.3236 27.1189C25.0213 26.3853 24.9433 25.5785 25.0993 24.8005C25.2554 24.0225 25.6385 23.3083 26.2002 22.748C26.762 22.1877 27.4772 21.8065 28.2554 21.6526C29.0337 21.4987 29.8402 21.579 30.5728 21.8833C31.3055 22.1876 31.9316 22.7023 32.3719 23.3624C32.8122 24.0224 33.047 24.7982 33.0466 25.5917C33.0466 26.6561 32.6238 27.677 31.8713 28.4297C31.1187 29.1823 30.098 29.6052 29.0338 29.6052" fill="#FF7A59"/>
</g>
</svg>
