<svg width="25" height="28" viewBox="0 0 25 28" fill="none" xmlns="http://www.w3.org/2000/svg">
<g id="Frame" clip-path="url(#clip0_2769_373)">
<g id="Page 1">
<g id="google analytics">
<g id="Group">
<path id="Shape" d="M17.9709 3.63702V24.0537C17.9709 26.3382 19.5471 27.6111 21.2191 27.6111C22.7658 27.6111 24.4672 26.5284 24.4672 24.0537V3.79169C24.4672 1.69744 22.9204 0.388916 21.2191 0.388916C19.5177 0.388916 17.9709 1.832 17.9709 3.63702Z" fill="#F9AB00"/>
<path id="Shape_2" d="M9.46387 14.0001V24.0537C9.46387 26.3382 11.04 27.6112 12.712 27.6112C14.2587 27.6112 15.9601 26.5285 15.9601 24.0537V14.1547C15.9601 12.0605 14.4134 10.752 12.712 10.752C11.0106 10.752 9.46387 12.195 9.46387 14.0001Z" fill="#E37400"/>
<path id="Oval" d="M4.20514 27.6111C5.99902 27.6111 7.45324 26.1569 7.45324 24.363C7.45324 22.5691 5.99902 21.1149 4.20514 21.1149C2.41126 21.1149 0.957031 22.5691 0.957031 24.363C0.957031 26.1569 2.41126 27.6111 4.20514 27.6111Z" fill="#E37400"/>
</g>
</g>
</g>
</g>
<defs>
<clipPath id="clip0_2769_373">
<rect width="23.7576" height="28" fill="white" transform="translate(0.833252)"/>
</clipPath>
</defs>
</svg>
