<svg width="71" height="25" viewBox="0 0 71 25" fill="none" xmlns="http://www.w3.org/2000/svg">
<g id="RegiM">
<path d="M10.6947 19H14.5091L10.5411 12.2416C12.5891 11.2944 13.9971 9.27203 13.9971 7.01923C13.9971 3.74243 11.3347 1.08003 8.03226 1.08003H0.864258V19H4.39706V12.7792H7.08506L10.6947 19ZM4.39706 4.38243H8.03226C9.36346 4.38243 10.4643 5.53443 10.4643 7.01923C10.4643 8.50403 9.36346 9.68163 8.03226 9.68163H4.39706V4.38243Z" fill="#172B4D"/>
<path d="M18.5761 13.9568H28.2273C28.3041 13.5216 28.3553 13.0864 28.3553 12.6C28.3553 8.83683 25.6673 5.84163 21.8785 5.84163C17.8593 5.84163 15.1201 8.78563 15.1201 12.6C15.1201 16.4144 17.8337 19.3584 22.1345 19.3584C24.5921 19.3584 26.5121 18.36 27.7153 16.6192L25.0529 15.0832C24.4897 15.8256 23.4657 16.3632 22.1857 16.3632C20.4449 16.3632 19.0369 15.6464 18.5761 13.9568ZM18.5249 11.3968C18.9089 9.75843 20.1121 8.81123 21.8785 8.81123C23.2609 8.81123 24.6433 9.55363 25.0529 11.3968H18.5249Z" fill="#172B4D"/>
<path d="M40.3655 6.20003V7.78723C39.4695 6.58403 38.0871 5.84163 36.2695 5.84163C32.6343 5.84163 29.8951 8.81123 29.8951 12.3952C29.8951 16.0048 32.6343 18.9488 36.2695 18.9488C38.0871 18.9488 39.4695 18.2064 40.3655 17.0032V18.3856C40.3655 20.408 39.0855 21.5344 37.0119 21.5344C35.0407 21.5344 34.1959 20.7408 33.6583 19.7424L30.8423 21.3552C31.9687 23.4288 34.1703 24.4784 36.9095 24.4784C40.2887 24.4784 43.5911 22.584 43.5911 18.3856V6.20003H40.3655ZM36.7815 15.9024C34.7079 15.9024 33.1975 14.4432 33.1975 12.3952C33.1975 10.3728 34.7079 8.91363 36.7815 8.91363C38.8551 8.91363 40.3655 10.3728 40.3655 12.3952C40.3655 14.4432 38.8551 15.9024 36.7815 15.9024Z" fill="#172B4D"/>
<path d="M48.2241 4.66403C49.3505 4.66403 50.2721 3.74243 50.2721 2.64163C50.2721 1.54083 49.3505 0.593628 48.2241 0.593628C47.1233 0.593628 46.2017 1.54083 46.2017 2.64163C46.2017 3.74243 47.1233 4.66403 48.2241 4.66403ZM46.5857 19H49.8881V6.20003H46.5857V19Z" fill="#172B4D"/>
<path d="M70.6003 1.08003H66.965L61.8451 9.55363L56.6995 1.08003H53.0643V19H56.5971V7.40323L61.6403 15.6976H62.0499L67.093 7.37763V19H70.6003V1.08003Z" fill="#172B4D"/>
</g>
</svg>
